<svg width="81" height="75" viewBox="0 0 81 75" fill="none" xmlns="http://www.w3.org/2000/svg">
<g id="Group 9931">
<path id="Vector 23" d="M0 27.0906L30.598 53.9246L60.2246 27.0906L30.598 0.86377L0 27.0906Z" fill="#0080CE"/>
<path id="Vector 24" d="M71.0311 0.86377L40.4331 27.5763L71.0311 54.7746L80.0162 45.7894L71.0311 36.8043L80.0162 27.8192L71.0311 18.834L80.0162 9.8489L71.0311 0.86377Z" fill="#00CAFA"/>
<g id="OstFish">
<path id="Vector" d="M65.9761 74.3303V58.84H69.7241V63.7362L69.6808 64.6895H69.7241C70.0418 64.1406 70.504 63.7073 71.1106 63.3896C71.7173 63.0718 72.3889 62.913 73.1255 62.913C75.7975 62.913 77.1335 64.3067 77.1335 67.0943V74.3303H73.3855V67.7876C73.3855 66.8054 72.9738 66.3143 72.1506 66.3143C71.3706 66.3143 70.7712 66.5888 70.3524 67.1376C69.9335 67.6865 69.7241 68.4086 69.7241 69.3041V74.3303H65.9761Z" fill="#0080CE"/>
<path id="Vector_2" d="M54.9336 72.9438L56.5368 70.4957C57.4323 71.2467 58.4433 71.6222 59.5699 71.6222C60.2487 71.6222 60.5881 71.4273 60.5881 71.0373C60.5881 70.8206 60.4076 70.6329 60.0465 70.474C59.6854 70.3007 59.2521 70.1274 58.7466 69.954C58.2411 69.7807 57.7284 69.5713 57.2084 69.3258C56.7029 69.0658 56.2696 68.6903 55.9085 68.1992C55.5474 67.7081 55.3669 67.1232 55.3669 66.4443C55.3669 65.3322 55.8002 64.4656 56.6668 63.8446C57.5478 63.2235 58.66 62.913 60.0032 62.913C61.6064 62.913 62.9351 63.339 63.9895 64.1912L62.7113 66.791C62.3935 66.531 61.9602 66.3143 61.4114 66.141C60.877 65.9677 60.3715 65.8811 59.8949 65.8811C59.2016 65.8811 58.8549 66.0616 58.8549 66.4227C58.8549 66.596 58.9849 66.7621 59.2449 66.921C59.5049 67.0654 59.8226 67.1954 60.1982 67.3109C60.5881 67.412 61.007 67.5637 61.4547 67.7659C61.9169 67.9537 62.3358 68.1703 62.7113 68.4158C63.1012 68.6469 63.4262 68.9863 63.6862 69.4341C63.9462 69.8674 64.0762 70.3657 64.0762 70.929C64.0762 71.9978 63.6573 72.8788 62.8196 73.5721C61.9963 74.2509 60.8842 74.5903 59.4832 74.5903C57.6778 74.5903 56.1613 74.0415 54.9336 72.9438Z" fill="#0080CE"/>
<path id="Vector_3" d="M49.559 61.7647V58.84H53.2203V61.7647H49.559ZM49.5156 74.3303V63.1729H53.2636V74.3303H49.5156Z" fill="#0080CE"/>
<path id="Vector_4" d="M38.3535 74.3303V58.84H47.8427V62.0897H42.1449V65.3394H46.8678V68.5892H42.1449V74.3303H38.3535Z" fill="#0080CE"/>
<path id="Vector_5" d="M29.7282 70.2141V66.2928H28.2983V63.368H29.8365V60.1616H33.4762V63.368H35.816V66.2928H33.4762V69.7158C33.4762 70.6691 34.1406 71.1457 35.4694 71.1457C35.6427 71.1457 35.8088 71.1385 35.9677 71.124V74.3738C35.4044 74.4171 35.065 74.4388 34.9495 74.4388C34.6028 74.4388 34.2634 74.4171 33.9312 74.3738C33.6135 74.3449 33.2379 74.2799 32.8046 74.1788C32.3858 74.0777 32.003 73.926 31.6564 73.7238C31.3242 73.5216 31.0064 73.2761 30.7031 72.9872C30.3998 72.6839 30.1615 72.2939 29.9882 71.8173C29.8149 71.3407 29.7282 70.8063 29.7282 70.2141Z" fill="#00CAFA"/>
<path id="Vector_6" d="M18.0356 72.9438L19.6388 70.4957C20.5343 71.2467 21.5454 71.6222 22.6719 71.6222C23.3508 71.6222 23.6902 71.4273 23.6902 71.0373C23.6902 70.8206 23.5096 70.6329 23.1486 70.474C22.7875 70.3007 22.3542 70.1274 21.8487 69.954C21.3431 69.7807 20.8304 69.5713 20.3105 69.3258C19.8049 69.0658 19.3716 68.6903 19.0106 68.1992C18.6495 67.7081 18.4689 67.1232 18.4689 66.4443C18.4689 65.3322 18.9022 64.4656 19.7688 63.8446C20.6499 63.2235 21.762 62.913 23.1052 62.913C24.7084 62.913 26.0372 63.339 27.0916 64.1912L25.8133 66.791C25.4956 66.531 25.0623 66.3143 24.5134 66.141C23.979 65.9677 23.4735 65.8811 22.9969 65.8811C22.3036 65.8811 21.957 66.0616 21.957 66.4227C21.957 66.596 22.087 66.7621 22.347 66.921C22.6069 67.0654 22.9247 67.1954 23.3002 67.3109C23.6902 67.412 24.109 67.5637 24.5568 67.7659C25.019 67.9537 25.4378 68.1703 25.8133 68.4158C26.2033 68.6469 26.5283 68.9863 26.7883 69.4341C27.0482 69.8674 27.1782 70.3657 27.1782 70.929C27.1782 71.9978 26.7594 72.8788 25.9217 73.5721C25.0984 74.2509 23.9863 74.5903 22.5853 74.5903C20.7799 74.5903 19.2633 74.0415 18.0356 72.9438Z" fill="#00CAFA"/>
<path id="Vector_7" d="M0.779785 66.4878C0.779785 64.2346 1.53806 62.357 3.0546 60.8549C4.57114 59.3383 6.51375 58.5801 8.88245 58.5801C11.2511 58.5801 13.1938 59.3383 14.7103 60.8549C16.2268 62.357 16.9851 64.2346 16.9851 66.4878C16.9851 68.7987 16.2268 70.7268 14.7103 72.2723C13.1938 73.8177 11.2511 74.5904 8.88245 74.5904C6.51375 74.5904 4.57114 73.8177 3.0546 72.2723C1.53806 70.7268 0.779785 68.7987 0.779785 66.4878ZM4.70113 66.4878C4.70113 67.8165 5.09109 68.9214 5.87103 69.8025C6.66541 70.6835 7.66921 71.124 8.88245 71.124C10.0957 71.124 11.0923 70.6835 11.8722 69.8025C12.6666 68.9214 13.0638 67.8165 13.0638 66.4878C13.0638 65.2168 12.6666 64.1624 11.8722 63.3247C11.0923 62.4725 10.0957 62.0465 8.88245 62.0465C7.66921 62.0465 6.66541 62.4725 5.87103 63.3247C5.09109 64.1624 4.70113 65.2168 4.70113 66.4878Z" fill="#00CAFA"/>
</g>
<circle id="Ellipse 101" cx="15.4404" cy="27.2722" r="3.68404" fill="white"/>
</g>
</svg>
